<?xml version="1.0" encoding="UTF-8"?>
<svg version="1.1" xmlns="http://www.w3.org/2000/svg" width="405" height="401">
<path d="M0 0 C3.28421977 1.29734342 6.13725504 3.06212764 9.07421875 4.9921875 C10.4934356 5.90185873 11.91413184 6.80922415 13.3359375 7.71484375 C14.1407959 8.22805176 14.9456543 8.74125977 15.77490234 9.27001953 C20.66472951 12.34699017 25.61208716 15.32957778 30.55499268 18.32019043 C32.38506552 19.42868612 34.21306996 20.54051893 36.04052734 21.65332031 C41.42880207 24.93178638 46.82524985 28.19023664 52.28125 31.35546875 C53.12381348 31.85054932 53.96637695 32.34562988 54.83447266 32.85571289 C56.36406392 33.75252775 57.90113419 34.63675761 59.44677734 35.50561523 C64.31993096 38.38402464 64.31993096 38.38402464 65.1940918 41.15600586 C65.58737643 44.66775654 65.65389609 48.13951477 65.64453125 51.66796875 C65.64643967 52.46517334 65.64834808 53.26237793 65.65031433 54.08374023 C65.65623258 58.80945002 65.63126892 63.53489046 65.60229492 68.26049805 C65.59593521 69.32519821 65.5895755 70.38989838 65.58302307 71.48686218 C65.56897798 73.82159473 65.55398927 76.15632174 65.53819275 78.49104309 C65.49275906 87.17059918 65.55111545 95.84564946 65.65172195 104.52470112 C65.74072816 112.44323042 65.77960223 120.36125085 65.79092026 128.28026104 C65.80031812 133.2887 65.83334269 138.29465745 65.92022705 143.30239868 C66.00265103 148.10255824 66.02223605 152.89918889 65.9974308 157.69995117 C65.99912271 159.48986413 66.02320379 161.27991781 66.07137108 163.06918335 C66.41261892 176.45199305 66.41261892 176.45199305 63.23268127 180.70137978 C59.74035418 184.15827143 55.75201265 186.55712166 51.51171875 188.9921875 C50.08777115 190.01445317 48.67381776 191.05138674 47.28515625 192.12109375 C46.15403141 192.93464327 45.0213148 193.74598606 43.88671875 194.5546875 C43.30277344 194.97814453 42.71882812 195.40160156 42.1171875 195.83789062 C39.58783825 197.6466358 37.48189889 199.00212745 34.51171875 199.9921875 C34.18171875 186.4621875 33.85171875 172.9321875 33.51171875 158.9921875 C10.74171875 158.9921875 -12.02828125 158.9921875 -35.48828125 158.9921875 C-35.50890625 166.1490625 -35.52953125 173.3059375 -35.55078125 180.6796875 C-35.55988525 182.89002686 -35.56898926 185.10036621 -35.57836914 187.37768555 C-35.59453229 192.25111645 -35.54677654 197.12266454 -35.49252319 201.99575806 C-35.48830639 204.97442768 -35.56994702 207.94167169 -35.66333008 210.91870117 C-36.06355763 220.4521317 -36.06355763 220.4521317 -32.31713867 228.84594727 C-29.32171688 231.01815228 -26.45239049 232.48103997 -23.05078125 233.9296875 C-21.99439453 234.45240234 -20.93800781 234.97511719 -19.84960938 235.51367188 C-17.76307714 236.54601038 -15.66226884 237.55005969 -13.54736328 238.52294922 C-9.00475673 240.7047055 -4.748987 243.30921197 -0.48828125 245.9921875 C0.54039062 245.31349609 0.54039062 245.31349609 1.58984375 244.62109375 C13.05350717 237.15277115 24.77931452 230.11516408 36.48524475 223.03620911 C40.5387158 220.58409633 44.58367801 218.11860165 48.62182617 215.64135742 C51.41987308 213.92517376 54.22223361 212.21612231 57.02539062 210.50830078 C58.9001175 209.36512974 60.77360285 208.21992229 62.64648438 207.07373047 C65.50716538 205.32530909 68.37087543 203.58220314 71.23794556 201.84429932 C72.92007014 200.82239551 74.59813705 199.79382205 76.27612305 198.76513672 C77.30133057 198.14525879 78.32653809 197.52538086 79.3828125 196.88671875 C80.7584436 196.04911011 80.7584436 196.04911011 82.16186523 195.19458008 C84.51171875 193.9921875 84.51171875 193.9921875 87.51171875 193.9921875 C87.51171875 148.1221875 87.51171875 102.2521875 87.51171875 54.9921875 C92.03807454 55.89745866 94.28936794 56.79927513 98.14453125 59.08203125 C99.19769531 59.70142578 100.25085938 60.32082031 101.3359375 60.95898438 C102.42519531 61.60931641 103.51445312 62.25964844 104.63671875 62.9296875 C105.73371094 63.57615234 106.83070313 64.22261719 107.9609375 64.88867188 C115.82982017 69.53758844 115.82982017 69.53758844 119.51171875 71.9921875 C119.90600204 74.42357254 119.90600204 74.42357254 119.93304443 77.54522705 C119.95017487 78.72570114 119.9673053 79.90617523 119.98495483 81.12242126 C119.98830841 82.42425858 119.99166199 83.72609523 119.99511719 85.06738281 C120.00899968 86.44709979 120.0240734 87.82680523 120.04025269 89.20649719 C120.07965776 92.96078962 120.09896629 96.71492103 120.11228466 100.46938801 C120.12107361 102.81493871 120.13338749 105.16044529 120.14679718 107.50597382 C120.18783517 114.84439336 120.21682669 122.1827122 120.22840285 129.52123857 C120.24183958 137.99290638 120.29444746 146.46312065 120.38140464 154.93434644 C120.44627613 161.48137803 120.47651673 168.02800098 120.48052621 174.57535052 C120.48366989 178.48623913 120.50137028 182.39576236 120.55498505 186.30631256 C120.6044703 189.9874414 120.61088324 193.66618149 120.58456802 197.34752464 C120.58115903 199.33847308 120.62229296 201.32934248 120.66482544 203.31983948 C120.54473127 211.88623146 120.54473127 211.88623146 117.55035877 215.09204388 C115.26061535 216.64183102 113.02272529 217.84456148 110.51171875 218.9921875 C109.44268311 219.64292236 108.37364746 220.29365723 107.2722168 220.96411133 C106.28261963 221.53669678 105.29302246 222.10928223 104.2734375 222.69921875 C103.13841797 223.35921875 102.00339844 224.01921875 100.83398438 224.69921875 C100.24270752 225.04162598 99.65143066 225.3840332 99.04223633 225.73681641 C88.45821073 231.86935422 77.94932124 238.11394085 67.51171875 244.4921875 C56.76991069 251.05380367 45.95263508 257.47359338 35.06396484 263.78857422 C29.25131489 267.16663533 23.49541827 270.60156115 17.8203125 274.20703125 C16.77399658 274.86678955 15.72768066 275.52654785 14.6496582 276.20629883 C12.69884022 277.44356099 10.75777752 278.69639762 8.82885742 279.9675293 C4.99397461 282.39187229 2.49246871 283.94543452 -2.09375 284.1640625 C-6.44781842 282.66093186 -10.04977509 280.58178441 -13.92578125 278.1171875 C-15.6799789 277.03221838 -17.43527008 275.94901612 -19.19140625 274.8671875 C-20.17173828 274.26003906 -21.15207031 273.65289062 -22.16210938 273.02734375 C-25.95278039 270.7079784 -29.77084509 268.4387424 -33.59765625 266.1796875 C-34.65588341 265.55463821 -34.65588341 265.55463821 -35.73548889 264.91696167 C-38.5806055 263.23729042 -41.42630041 261.55860769 -44.27316284 259.88189697 C-64.55144811 247.92902064 -64.55144811 247.92902064 -67.48828125 244.9921875 C-67.59746811 242.86623858 -67.6352024 240.73661586 -67.64649963 238.6078949 C-67.6539066 237.59593405 -67.6539066 237.59593405 -67.6614632 236.56352955 C-67.67691054 234.28641489 -67.68521826 232.00932857 -67.69360352 229.73217773 C-67.70317637 228.10643257 -67.71318609 226.48068993 -67.72360229 224.85494995 C-67.75072173 220.42748048 -67.77169305 216.00000028 -67.79160428 211.57249331 C-67.81342058 206.95065764 -67.8408305 202.32885531 -67.86766052 197.70704651 C-67.91764651 188.94872932 -67.96256335 180.19039367 -68.00568289 171.43204027 C-68.0550049 161.46362369 -68.10994164 151.49524056 -68.16536248 141.5268563 C-68.27927315 121.01533118 -68.3860923 100.50377414 -68.48828125 79.9921875 C-69.08366699 80.32541016 -69.67905273 80.65863281 -70.29248047 81.00195312 C-72.98032974 82.50307574 -75.67173695 83.9977011 -78.36328125 85.4921875 C-79.30042969 86.01683594 -80.23757812 86.54148437 -81.203125 87.08203125 C-82.54697266 87.82646484 -82.54697266 87.82646484 -83.91796875 88.5859375 C-84.74538574 89.04677734 -85.57280273 89.50761719 -86.42529297 89.98242188 C-88.48828125 90.9921875 -88.48828125 90.9921875 -90.48828125 90.9921875 C-90.48828125 136.8621875 -90.48828125 182.7321875 -90.48828125 229.9921875 C-95.17934612 228.42849921 -98.3851506 227.04819777 -102.5078125 224.55078125 C-103.61189453 223.88498047 -104.71597656 223.21917969 -105.85351562 222.53320312 C-106.70175903 222.01560425 -106.70175903 222.01560425 -107.56713867 221.48754883 C-109.3101471 220.4239725 -111.05786422 219.36851349 -112.80664062 218.31445312 C-121.32005673 213.16041202 -121.32005673 213.16041202 -122.48828125 211.9921875 C-122.59558016 210.20456472 -122.63238771 208.41268527 -122.6421814 206.62187195 C-122.65078186 205.45671051 -122.65938232 204.29154907 -122.66824341 203.09107971 C-122.67250336 201.80120651 -122.67676331 200.51133331 -122.68115234 199.18237305 C-122.6890502 197.81927276 -122.69731895 196.45617457 -122.70593262 195.09307861 C-122.73219061 190.60504158 -122.7474645 186.11699504 -122.76171875 181.62890625 C-122.76707698 180.08585923 -122.77245448 178.54281228 -122.7778511 176.9997654 C-122.79948584 170.58227059 -122.81822343 164.16477834 -122.8294735 157.74725628 C-122.84571751 148.54043092 -122.87889891 139.33402733 -122.93587434 130.127361 C-122.9745406 123.65939117 -122.99410225 117.19153431 -122.99939406 110.72345191 C-123.0030523 106.85770178 -123.01512241 102.99240107 -123.0474968 99.12677574 C-123.07751963 95.4896839 -123.08391065 91.85331472 -123.07211304 88.21612549 C-123.07178626 86.24397533 -123.09629097 84.27187016 -123.12149048 82.29988098 C-123.113172 81.12626007 -123.10485352 79.95263916 -123.09628296 78.74345398 C-123.09959311 77.72340617 -123.10290325 76.70335836 -123.10631371 75.65240002 C-122.07071726 71.19485641 -118.63778953 69.71675225 -114.95556641 67.39575195 C-114.07175293 66.8874585 -113.18793945 66.37916504 -112.27734375 65.85546875 C-111.28782715 65.28304443 -110.29831055 64.71062012 -109.27880859 64.12084961 C-107.71187256 63.22184937 -107.71187256 63.22184937 -106.11328125 62.3046875 C-103.93058577 61.04236465 -101.7482927 59.77934573 -99.56640625 58.515625 C-98.51388672 57.90686523 -97.46136719 57.29810547 -96.37695312 56.67089844 C-92.85251715 54.62272216 -89.35170845 52.53844574 -85.86328125 50.4296875 C-79.96874885 46.87089675 -74.04504377 43.36355796 -68.11328125 39.8671875 C-56.78462212 33.18562493 -45.50739994 26.41972487 -34.23632812 19.64160156 C-31.84941846 18.20894683 -29.45934309 16.78193006 -27.06640625 15.359375 C-26.42485596 14.9773291 -25.78330566 14.5952832 -25.12231445 14.20166016 C-23.93414466 13.49426836 -22.74521404 12.78815245 -21.55541992 12.08349609 C-18.52732748 10.27457373 -15.56757818 8.39189935 -12.6484375 6.4140625 C-12.01381592 5.98851074 -11.37919434 5.56295898 -10.7253418 5.12451172 C-9.52107712 4.3113528 -8.325187 3.48558957 -7.13989258 2.64501953 C-4.68595166 0.98992488 -2.99779197 -0.00941222 0 0 Z M-8.3203125 43.1328125 C-9.44888672 43.79152344 -10.57746094 44.45023438 -11.74023438 45.12890625 C-12.92722492 45.83309472 -14.11407285 46.53752365 -15.30078125 47.2421875 C-16.47544083 47.93179187 -17.65056689 48.6206023 -18.82617188 49.30859375 C-21.07399497 50.62632727 -23.31281956 51.95956096 -25.54125977 53.30981445 C-28.48828125 54.9921875 -28.48828125 54.9921875 -30.83959961 55.88354492 C-33.06074456 56.60433297 -33.06074456 56.60433297 -35.48828125 58.9921875 C-36.55026797 63.56889436 -36.4668586 68.13309107 -36.42578125 72.8046875 C-36.43842915 74.20315419 -36.45403432 75.60159687 -36.47241211 77 C-36.51301454 80.82981462 -36.5081245 84.65838506 -36.49401855 88.48834229 C-36.48386235 92.92066201 -36.5088207 97.35288001 -36.52734375 101.78515625 C-36.56614217 111.18802845 -36.52186495 120.58875212 -36.48828125 129.9921875 C-13.05828125 129.9921875 10.37171875 129.9921875 34.51171875 129.9921875 C34.51171875 106.5621875 34.51171875 83.1321875 34.51171875 58.9921875 C30.88171875 57.0121875 27.25171875 55.0321875 23.51171875 52.9921875 C21.58628537 51.86599892 19.6682311 50.72683863 17.765625 49.5625 C16.82654297 48.9953125 15.88746094 48.428125 14.91992188 47.84375 C12.99239959 46.67427182 11.06800252 45.49962984 9.14648438 44.3203125 C8.21642578 43.76085937 7.28636719 43.20140625 6.328125 42.625 C5.49740479 42.11855957 4.66668457 41.61211914 3.81079102 41.09033203 C-1.08474655 38.75199414 -4.01914788 40.59956972 -8.3203125 43.1328125 Z " fill="#FDFDFC" transform="translate(203.48828125,61.0078125)"/>
</svg>
<?xml version="1.0" encoding="UTF-8"?>
<svg version="1.1" xmlns="http://www.w3.org/2000/svg" width="405" height="401">
<path d="M0 0 C3.28421977 1.29734342 6.13725504 3.06212764 9.07421875 4.9921875 C10.4934356 5.90185873 11.91413184 6.80922415 13.3359375 7.71484375 C14.1407959 8.22805176 14.9456543 8.74125977 15.77490234 9.27001953 C20.66472951 12.34699017 25.61208716 15.32957778 30.55499268 18.32019043 C32.38506552 19.42868612 34.21306996 20.54051893 36.04052734 21.65332031 C41.42880207 24.93178638 46.82524985 28.19023664 52.28125 31.35546875 C53.12381348 31.85054932 53.96637695 32.34562988 54.83447266 32.85571289 C56.36406392 33.75252775 57.90113419 34.63675761 59.44677734 35.50561523 C64.31993096 38.38402464 64.31993096 38.38402464 65.1940918 41.15600586 C65.58737643 44.66775654 65.65389609 48.13951477 65.64453125 51.66796875 C65.64643967 52.46517334 65.64834808 53.26237793 65.65031433 54.08374023 C65.65623258 58.80945002 65.63126892 63.53489046 65.60229492 68.26049805 C65.59593521 69.32519821 65.5895755 70.38989838 65.58302307 71.48686218 C65.56897798 73.82159473 65.55398927 76.15632174 65.53819275 78.49104309 C65.49275906 87.17059918 65.55111545 95.84564946 65.65172195 104.52470112 C65.74072816 112.44323042 65.77960223 120.36125085 65.79092026 128.28026104 C65.80031812 133.2887 65.83334269 138.29465745 65.92022705 143.30239868 C66.00265103 148.10255824 66.02223605 152.89918889 65.9974308 157.69995117 C65.99912271 159.48986413 66.02320379 161.27991781 66.07137108 163.06918335 C66.41261892 176.45199305 66.41261892 176.45199305 63.23268127 180.70137978 C59.74035418 184.15827143 55.75201265 186.55712166 51.51171875 188.9921875 C50.08777115 190.01445317 48.67381776 191.05138674 47.28515625 192.12109375 C46.15403141 192.93464327 45.0213148 193.74598606 43.88671875 194.5546875 C43.30277344 194.97814453 42.71882812 195.40160156 42.1171875 195.83789062 C39.58783825 197.6466358 37.48189889 199.00212745 34.51171875 199.9921875 C34.18171875 186.4621875 33.85171875 172.9321875 33.51171875 158.9921875 C10.74171875 158.9921875 -12.02828125 158.9921875 -35.48828125 158.9921875 C-35.50890625 166.1490625 -35.52953125 173.3059375 -35.55078125 180.6796875 C-35.55988525 182.89002686 -35.56898926 185.10036621 -35.57836914 187.37768555 C-35.59453229 192.25111645 -35.54677654 197.12266454 -35.49252319 201.99575806 C-35.48830639 204.97442768 -35.56994702 207.94167169 -35.66333008 210.91870117 C-36.06355763 220.4521317 -36.06355763 220.4521317 -32.31713867 228.84594727 C-29.32171688 231.01815228 -26.45239049 232.48103997 -23.05078125 233.9296875 C-21.99439453 234.45240234 -20.93800781 234.97511719 -19.84960938 235.51367188 C-17.76307714 236.54601038 -15.66226884 237.55005969 -13.54736328 238.52294922 C-9.00475673 240.7047055 -4.748987 243.30921197 -0.48828125 245.9921875 C0.54039062 245.31349609 0.54039062 245.31349609 1.58984375 244.62109375 C13.05350717 237.15277115 24.77931452 230.11516408 36.48524475 223.03620911 C40.5387158 220.58409633 44.58367801 218.11860165 48.62182617 215.64135742 C51.41987308 213.92517376 54.22223361 212.21612231 57.02539062 210.50830078 C58.9001175 209.36512974 60.77360285 208.21992229 62.64648438 207.07373047 C65.50716538 205.32530909 68.37087543 203.58220314 71.23794556 201.84429932 C72.92007014 200.82239551 74.59813705 199.79382205 76.27612305 198.76513672 C77.30133057 198.14525879 78.32653809 197.52538086 79.3828125 196.88671875 C80.7584436 196.04911011 80.7584436 196.04911011 82.16186523 195.19458008 C84.51171875 193.9921875 84.51171875 193.9921875 87.51171875 193.9921875 C87.51171875 148.1221875 87.51171875 102.2521875 87.51171875 54.9921875 C92.03807454 55.89745866 94.28936794 56.79927513 98.14453125 59.08203125 C99.19769531 59.70142578 100.25085938 60.32082031 101.3359375 60.95898438 C102.42519531 61.60931641 103.51445312 62.25964844 104.63671875 62.9296875 C105.73371094 63.57615234 106.83070313 64.22261719 107.9609375 64.88867188 C115.82982017 69.53758844 115.82982017 69.53758844 119.51171875 71.9921875 C119.90600204 74.42357254 119.90600204 74.42357254 119.93304443 77.54522705 C119.95017487 78.72570114 119.9673053 79.90617523 119.98495483 81.12242126 C119.98830841 82.42425858 119.99166199 83.72609589 119.99511719 85.06738281 C120.00899968 86.44709979 120.0240734 87.82680523 120.04025269 89.20649719 C120.07965776 92.96078962 120.09896629 96.71492103 120.11228466 100.46938801 C120.12107361 102.81493871 120.13338749 105.16044529 120.14679718 107.50597382 C120.18783517 114.84439336 120.21682669 122.1827122 120.22840285 129.52123857 C120.24183958 137.99290638 120.29444746 146.46312065 120.38140464 154.93434644 C120.44627613 161.48137803 120.47651673 168.02800098 120.48052621 174.57535052 C120.48366989 178.48623913 120.50137028 182.39576236 120.55498505 186.30631256 C120.6044703 189.9874414 120.61088324 193.66618149 120.58456802 197.34752464 C120.58115903 199.33847308 120.62229296 201.32934248 120.66482544 203.31983948 C120.54473127 211.88623146 120.54473127 211.88623146 117.55035877 215.09204388 C115.26061535 216.64183102 113.02272529 217.84456148 110.51171875 218.9921875 C109.44268311 219.64292236 108.37364746 220.29365723 107.2722168 220.96411133 C106.28261963 221.53669678 105.29302246 222.10928223 104.2734375 222.69921875 C103.13841797 223.35921875 102.00339844 224.01921875 100.83398438 224.69921875 C100.24270752 225.04162598 99.65143066 225.3840332 99.04223633 225.73681641 C88.45821073 231.86935422 77.94932124 238.11394085 67.51171875 244.4921875 C56.76991069 251.05380367 45.95263508 257.47359338 35.06396484 263.78857422 C29.25131489 267.16663533 23.49541827 270.60156115 17.8203125 274.20703125 C16.77399658 274.86678955 15.72768066 275.52654785 14.6496582 276.20629883 C12.69884022 277.44356099 10.75777752 278.69639762 8.82885742 279.9675293 C4.99397461 282.39187229 2.49246871 283.94543452 -2.09375 284.1640625 C-6.44781842 282.66093186 -10.04977509 280.58178441 -13.92578125 278.1171875 C-15.6799789 277.03221838 -17.43527008 275.94901612 -19.19140625 274.8671875 C-20.17173828 274.26003906 -21.15207031 273.65289062 -22.16210938 273.02734375 C-25.95278039 270.7079784 -29.77084509 268.4387424 -33.59765625 266.1796875 C-34.65588341 265.55463821 -34.65588341 265.55463821 -35.73548889 264.91696167 C-38.5806055 263.23729042 -41.42630041 261.55860769 -44.27316284 259.88189697 C-64.55144811 247.92902064 -64.55144811 247.92902064 -67.48828125 244.9921875 C-67.59746811 242.86623858 -67.6352024 240.73661586 -67.64649963 238.6078949 C-67.6539066 237.59593405 -67.6539066 237.59593405 -67.6614632 236.56352955 C-67.67691054 234.28641489 -67.68521826 232.00932857 -67.69360352 229.73217773 C-67.70317637 228.10643257 -67.71318609 226.48068993 -67.72360229 224.85494995 C-67.75072173 220.42748048 -67.77169305 216.00000028 -67.79160428 211.57249331 C-67.81342058 206.95065764 -67.8408305 202.32885531 -67.86766052 197.70704651 C-67.91764651 188.94872932 -67.96256335 180.19039367 -68.00568289 171.43204027 C-68.0550049 161.46362369 -68.10994164 151.49524056 -68.16536248 141.5268563 C-68.27927315 121.01533118 -68.3860923 100.50377414 -68.48828125 79.9921875 C-69.08366699 80.32541016 -69.67905273 80.65863281 -70.29248047 81.00195312 C-72.98032974 82.50307574 -75.67173695 83.9977011 -78.36328125 85.4921875 C-79.30042969 86.01683594 -80.23757812 86.54148437 -81.203125 87.08203125 C-82.54697266 87.82646484 -82.54697266 87.82646484 -83.91796875 88.5859375 C-84.74538574 89.04677734 -85.57280273 89.50761719 -86.42529297 89.98242188 C-88.48828125 90.9921875 -88.48828125 90.9921875 -90.48828125 90.9921875 C-90.48828125 136.8621875 -90.48828125 182.7321875 -90.48828125 229.9921875 C-95.17934612 228.42849921 -98.3851506 227.04819777 -102.5078125 224.55078125 C-103.61189453 223.88498047 -104.71597656 223.21917969 -105.85351562 222.53320312 C-106.70175903 222.01560425 -106.70175903 222.01560425 -107.56713867 221.48754883 C-109.3101471 220.4239725 -111.05786422 219.36851349 -112.80664062 218.31445312 C-121.32005673 213.16041202 -121.32005673 213.16041202 -122.48828125 211.9921875 C-122.59558016 210.20456472 -122.63238771 208.41268527 -122.6421814 206.62187195 C-122.65078186 205.45671051 -122.65938232 204.29154907 -122.66824341 203.09107971 C-122.67250336 201.80120651 -122.67676331 200.51133331 -122.68115234 199.18237305 C-122.6890502 197.81927276 -122.69731895 196.45617457 -122.70593262 195.09307861 C-122.73219061 190.60504158 -122.7474645 186.11699504 -122.76171875 181.62890625 C-122.76707698 180.08585923 -122.77245448 178.54281228 -122.7778511 176.9997654 C-122.79948584 170.58227059 -122.81822343 164.16477834 -122.8294735 157.74725628 C-122.84571751 148.54043092 -122.87889891 139.33402733 -122.93587434 130.127361 C-122.9745406 123.65939117 -122.99410225 117.19153431 -122.99939406 110.72345191 C-123.0030523 106.85770178 -123.01512241 102.99240107 -123.0474968 99.12677574 C-123.07751963 95.4896839 -123.08391065 91.85331472 -123.07211304 88.21612549 C-123.07178626 86.24397533 -123.09629097 84.27187016 -123.12149048 82.29988098 C-123.113172 81.12626007 -123.10485352 79.95263916 -123.09628296 78.74345398 C-123.09959311 77.72340617 -123.10290325 76.70335836 -123.10631371 75.65240002 C-122.07071726 71.19485641 -118.63778953 69.71675225 -114.95556641 67.39575195 C-114.07175293 66.8874585 -113.18793945 66.37916504 -112.27734375 65.85546875 C-111.28782715 65.28304443 -110.29831055 64.71062012 -109.27880859 64.12084961 C-107.71187256 63.22184937 -107.71187256 63.22184937 -106.11328125 62.3046875 C-103.93058577 61.04236465 -101.7482927 59.77934573 -99.56640625 58.515625 C-98.51388672 57.90686523 -97.46136719 57.29810547 -96.37695312 56.67089844 C-92.85251715 54.62272216 -89.35170845 52.53844574 -85.86328125 50.4296875 C-79.96874885 46.87089675 -74.04504377 43.36355796 -68.11328125 39.8671875 C-56.78462212 33.18562493 -45.50739994 26.41972487 -34.23632812 19.64160156 C-31.84941846 18.20894683 -29.45934309 16.78193006 -27.06640625 15.359375 C-26.42485596 14.9773291 -25.78330566 14.5952832 -25.12231445 14.20166016 C-23.93414466 13.49426836 -22.74521404 12.78815245 -21.55541992 12.08349609 C-18.52732748 10.27457373 -15.56757818 8.39189935 -12.6484375 6.4140625 C-12.01381592 5.98851074 -11.37919434 5.56295898 -10.7253418 5.12451172 C-9.52107712 4.3113528 -8.325187 3.48558957 -7.13989258 2.64501953 C-4.68595166 0.98992488 -2.99779197 -0.00941222 0 0 Z M-8.3203125 43.1328125 C-9.44888672 43.79152344 -10.57746094 44.45023438 -11.74023438 45.12890625 C-12.92722492 45.83309472 -14.11407285 46.53752365 -15.30078125 47.2421875 C-16.47544083 47.93179187 -17.65056689 48.6206023 -18.82617188 49.30859375 C-21.07399497 50.62632727 -23.31281956 51.95956096 -25.54125977 53.30981445 C-28.48828125 54.9921875 -28.48828125 54.9921875 -30.83959961 55.88354492 C-33.06074456 56.60433297 -33.06074456 56.60433297 -35.48828125 58.9921875 C-36.55026797 63.56889436 -36.4668586 68.13309107 -36.42578125 72.8046875 C-36.43842915 74.20315419 -36.45403432 75.60159687 -36.47241211 77 C-36.51301454 80.82981462 -36.5081245 84.65838506 -36.49401855 88.48834229 C-36.48386235 92.92066201 -36.5088207 97.35288001 -36.52734375 101.78515625 C-36.56614217 111.18802845 -36.52186495 120.58875212 -36.48828125 129.9921875 C-13.05828125 129.9921875 10.37171875 129.9921875 34.51171875 129.9921875 C34.51171875 106.5621875 34.51171875 83.1321875 34.51171875 58.9921875 C30.88171875 57.0121875 27.25171875 55.0321875 23.51171875 52.9921875 C21.58628537 51.86599892 19.6682311 50.72683863 17.765625 49.5625 C16.82654297 48.9953125 15.88746094 48.428125 14.91992188 47.84375 C12.99239959 46.67427182 11.06800252 45.49962984 9.14648438 44.3203125 C8.21642578 43.76085937 7.28636719 43.20140625 6.328125 42.625 C5.49740479 42.11855957 4.66668457 41.61211914 3.81079102 41.09033203 C-1.08474655 38.75199414 -4.01914788 40.59956972 -8.3203125 43.1328125 Z " fill="#FDFDFC" transform="translate(203.48828125,61.0078125)"/>
</svg>
