<?xml version="1.0" encoding="UTF-8"?>
<svg version="1.1" xmlns="http://www.w3.org/2000/svg" width="405" height="401">
<path d="M0 0 C3.28421977 1.29734342 6.13725504 3.06212764 9.07421875 4.9921875 C10.4934356 5.90185873 11.91413184 6.80922415 13.3359375 7.71484375 C14.1407959 8.22805176 14.9456543 8.74125977 15.77490234 9.27001953 C20.66472951 12.34699017 25.61208716 15.32957778 30.55499268 18.32019043 C32.38506552 19.42868612 34.21306996 20.54051893 36.04052734 21.65332031 C41.42880207 24.93178638 46.82524985 28.19023664 52.28125 31.35546875 C53.12381348 31.85054932 53.96637695 32.34562988 54.83447266 32.85571289 C56.36406392 33.75252775 57.90113419 34.63675761 59.44677734 35.50561523 C64.31993096 38.38402464 64.31993096 38.38402464 65.1940918 41.15600586 C65.58737643 44.66775654 65.65389609 48.13951477 65.64453125 51.66796875 C65.64643967 52.46517334 65.64834808 53.26237793 65.65031433 54.08374023 C65.65623258 58.80945002 65.63126892 63.53489046 65.60229492 68.26049805 C65.59593521 69.32519821 65.5895755 70.38989838 65.58302307 71.48686218 C65.56897798 73.82159473 65.55398927 76.15632174 65.53819275 78.49104309 C65.49275906 87.17059918 65.55111545 95.84564946 65.65172195 104.52470112 C65.74072816 112.44323042 65.77960223 120.36125085 65.79092026 128.28026104 C65.80031812 133.2887 65.83334269 138.29465745 65.92022705 143.30239868 C66.00265103 148.10255824 66.02223605 152.89918889 65.9974308 157.69995117 C65.99912271 159.48986413 66.02320379 161.27991781 66.07137108 163.06918335 C66.41261892 176.45199305 66.41261892 176.45199305 63.23268127 180.70137978 C59.74035418 184.15827143 55.75201265 186.55712166 51.51171875 188.9921875 C50.08777115 190.01445317 48.67381776 191.05138674 47.28515625 192.12109375 C46.15403141 192.93464327 45.0213148 193.74598606 43.88671875 194.5546875 C43.30277344 194.97814453 42.71882812 195.40160156 42.1171875 195.83789062 C39.58783825 197.6466358 37.48189889 199.00212745 34.51171875 199.9921875 C34.18171875 186.4621875 33.85171875 172.9321875 33.51171875 158.9921875 C10.74171875 158.9921875 -12.02828125 158.9921875 -35.48828125 158.9921875 C-35.50890625 166.1490625 -35.52953125 173.3059375 -35.55078125 180.6796875 C-35.55988525 182.89002686 -35.56898926 185.10036621 -35.57836914 187.37768555 C-35.59453229 192.25111645 -35.54677654 197.12266454 -35.49252319 201.99575806 C-35.48830639 204.97442768 -35.56994702 207.94167169 -35.66333008 210.91870117 C-36.06355763 220.4521317 -36.06355763 220.4521317 -32.31713867 228.84594727 C-29.32171688 231.01815228 -26.45239049 232.48103997 -23.05078125 233.9296875 C-21.99439453 234.45240234 -20.93800781 234.97511719 -19.84960938 235.51367188 C-17.76307714 236.54601038 -15.66226884 237.55005969 -13.54736328 238.52294922 C-9.00475673 240.7047055 -4.748987 243.30921197 -0.48828125 245.9921875 C0.54039062 245.31349609 0.54039062 245.31349609 1.58984375 244.62109375 C13.05350717 237.15277115 24.77931452 230.11516408 36.48524475 223.03620911 C40.5387158 220.58409633 44.58367801 218.11860165 48.62182617 215.64135742 C51.41987308 213.92517376 54.22223361 212.21612231 57.02539062 210.50830078 C58.9001175 209.36512974 60.77360285 208.21992229 62.64648438 207.07373047 C65.50716538 205.32530909 68.37087543 203.58220314 71.23794556 201.84429932 C72.92007014 200.82239551 74.59813705 199.79382205 76.27612305 198.76513672 C77.30133057 198.14525879 78.32653809 197.52538086 79.3828125 196.88671875 C80.7584436 196.04911011 80.7584436 196.04911011 82.16186523 195.19458008 C84.51171875 193.9921875 84.51171875 193.9921875 87.51171875 193.9921875 C87.51171875 148.1221875 87.51171875 102.2521875 87.51171875 54.9921875 C92.03807454 55.89745866 94.28936794 56.79927513 98.14453125 59.08203125 C99.19769531 59.70142578 100.25085938 60.32082031 101.3359375 60.95898438 C102.42519531 61.60931641 103.51445312 62.25964844 104.63671875 62.9296875 C105.73371094 63.57615234 106.83070313 64.22261719 107.9609375 64.88867188 C115.82982017 69.53758844 115.82982017 69.53758844 119.51171875 71.9921875 C119.90600204 74.42357254 119.90600204 74.42357254 119.93304443 77.54522705 C119.95017487 78.72570114 119.9673053 79.90617523 119.98495483 81.12242126 C119.98830841 82.42425858 119.99166199 83.72609589 119.99511719 85.06738281 C120.00899968 86.44709979 120.0240734 87.82680523 120.04025269 89.20649719 C120.07965776 92.96078962 120.09896629 96.71492103 120.11228466 100.46938801 C120.12107361 102.81493871 120.13338749 105.16044529 120.14679718 107.50597382 C120.18783517 114.84439336 120.21682669 122.1827122 120.22840285 129.52123857 C120.24183958 137.99290638 120.29444746 146.46312065 120.38140464 154.93434644 C120.44627613 161.48137803 120.47651673 168.02800098 120.48052621 174.57535052 C120.48366989 178.48623913 120.50137028 182.39576236 120.55498505 186.30631256 C120.6044703 189.9874414 120.61088324 193.66618149 120.58456802 197.34752464 C120.58115903 199.33847308 120.62229296 201.32934248 120.66482544 203.31983948 C120.54473127 211.88623146 120.54473127 211.88623146 117.55035877 215.09204388 C115.26061535 216.64183102 113.02272529 217.84456148 110.51171875 218.9921875 C109.44268311 219.64292236 108.37364746 220.29365723 107.2722168 220.96411133 C106.28261963 221.53669678 105.29302246 222.10928223 104.2734375 222.69921875 C103.13841797 223.35921875 102.00339844 224.01921875 100.83398438 224.69921875 C100.24270752 225.04162598 99.65143066 225.3840332 99.04223633 225.73681641 C88.45821073 231.86935422 77.94932124 238.11394085 67.51171875 244.4921875 C56.76991069 251.05380367 45.95263508 257.47359338 35.06396484 263.78857422 C29.25131489 267.16663533 23.49541827 270.60156115 17.8203125 274.20703125 C16.77399658 274.86678955 15.72768066 275.52654785 14.6496582 276.20629883 C12.69884022 277.44356099 -..." fill="#FDFDFC" transform="translate(203.48828125,61.0078125)"/>
</svg>
<svg width="80" height="80" viewBox="0 0 80 80" fill="none" xmlns="http://www.w3.org/2000/svg">
  <defs>
    <linearGradient id="hhGradient" x1="0%" y1="0%" x2="100%" y2="100%">
      <stop offset="0%" stop-color="#FF6B35"/>
      <stop offset="50%" stop-color="#F77F00"/>
      <stop offset="100%" stop-color="#004E89"/>
    </linearGradient>
  </defs>
  <circle cx="40" cy="40" r="35" fill="url(#hhGradient)"/>
  <text x="40" y="45" text-anchor="middle" fill="white" font-family="Arial" font-size="14" font-weight="bold">HHDAO</text>
  <text x="40" y="65" text-anchor="middle" fill="white" font-family="Arial" font-size="8">HeliosHash</text>
</svg>
